<svg width="35" height="29" viewBox="0 0 35 29" fill="none" xmlns="http://www.w3.org/2000/svg">
<path d="M35 3.40884C33.698 3.98695 32.312 4.37018 30.866 4.55618C32.353 3.65692 33.488 2.24377 34.022 0.54045C32.635 1.37771 31.104 1.96911 29.472 2.29914C28.155 0.87934 26.278 0 24.231 0C20.258 0 17.06 3.26487 17.06 7.26738C17.06 7.84318 17.108 8.39698 17.227 8.92418C11.261 8.62958 5.983 5.73458 2.437 1.32455C1.818 2.41211 1.455 3.65692 1.455 4.99698C1.455 7.51318 2.734 9.74368 4.642 11.035C3.489 11.0129 2.358 10.674 1.4 10.1402C1.4 10.1623 1.4 10.1911 1.4 10.2199C1.4 13.7506 3.887 16.6832 7.149 17.3588C6.565 17.5205 5.928 17.598 5.267 17.598C4.808 17.598 4.344 17.5714 3.909 17.474C4.839 20.3512 7.477 22.4665 10.614 22.5352C8.173 24.4688 5.073 25.6339 1.717 25.6339C1.129 25.6339 0.564 25.6073 0 25.5343C3.178 27.6097 6.945 28.7947 11.007 28.7947C24.211 28.7947 31.43 17.7198 31.43 8.12008C31.43 7.79888 31.419 7.48878 31.404 7.18098C32.828 6.15758 34.024 4.87958 35 3.40884Z" fill="#F58634"/>
</svg>
